<?xml version="1.0" standalone="no"?><!DOCTYPE svg PUBLIC "-//W3C//DTD SVG 1.1//EN" "http://www.w3.org/Graphics/SVG/1.1/DTD/svg11.dtd"><svg t="1692863568605" class="icon" viewBox="0 0 1024 1024" version="1.1" xmlns="http://www.w3.org/2000/svg" p-id="10321" xmlns:xlink="http://www.w3.org/1999/xlink" width="200" height="200"><path d="M970.4 376.7c-5.4-18.4-26.5-26.7-43.1-17.2l-0.6 0.3c-12 6.8-17.7 20.9-13.8 34.2 11 37.3 16.9 76.9 16.9 117.7 0 230.4-187.4 417.8-417.8 417.8-230.8 0.1-418-187.2-418-417.8C94 281.3 281.5 93.9 511.9 93.9c41 0 80.6 5.9 118 17 13.2 3.9 27.3-1.8 34.2-13.8l0.3-0.6c9.6-16.6 1.2-37.7-17.2-43.1C603.5 40.5 558.1 34 511.8 34c-64.5 0-127.1 12.6-186 37.6-56.9 23.9-108 58.4-151.8 102.2-43.9 43.9-78.3 95-102.4 151.9C46.7 384.6 34 447.2 34 511.7s12.6 127.1 37.6 186c24.1 56.9 58.5 108 102.4 151.9 43.9 43.9 95 78.3 151.9 102.4 58.9 24.9 121.5 37.6 186 37.6S639 977 697.9 952c56.9-24.1 108-58.5 151.9-102.4 43.9-43.9 78.3-95 102.4-151.9 24.9-58.9 37.6-121.5 37.6-186-0.1-46.2-6.6-91.4-19.4-135z" p-id="10322"></path><path d="M481.1 349.5c-25.7-51.9-79.2-87.8-141-87.8-43.8 0-83.4 18-111.9 47-14.2 14.4-25.7 31.6-33.5 50.7-7.5 18.4-11.7 38.5-11.7 59.5 0 86.7 70.5 157.2 157.2 157.2 17.8 0 34.9-3 50.9-8.5l52.8 71c-9 11.4-16.5 24.1-22.1 37.7-7.5 18.4-11.7 38.5-11.7 59.5 0 86.7 70.5 157.2 157.2 157.2 21 0 41-4.1 59.4-11.7 19.1-7.8 36.2-19.2 50.7-33.5 29-28.5 47.1-68.2 47.1-112.1 0-86.7-70.5-157.2-157.2-157.2-28.3 0-54.8 7.5-77.8 20.6l-46.1-62c2.4-2.1 4.7-4.2 6.9-6.4 29-28.5 47.1-68.2 47.1-112.1 0-3.3-0.1-6.7-0.3-10l216.7-114c28.8 33.1 71.3 54 118.5 54 21 0 41-4.1 59.4-11.7 19.1-7.8 36.2-19.2 50.7-33.5 29-28.5 47.1-68.2 47.1-112.1 0-86.7-70.5-157.2-157.2-157.2-43.8 0-83.4 18-111.9 47-14.2 14.4-25.7 31.6-33.5 50.7-7.5 18.4-11.7 38.5-11.7 59.5 0 17.9 3 35.1 8.6 51.2l-202.7 107z m-6.3 356.2c6.5-19.7 19.1-36.7 35.6-48.7 16-11.6 35.6-18.4 56.8-18.4 53.6 0 97.2 43.6 97.2 97.2 0 21.2-6.8 40.9-18.4 56.9-12 16.5-28.9 29.1-48.7 35.5-9.5 3.1-19.5 4.8-30 4.8-53.6 0-97.2-43.6-97.2-97.2-0.1-10.5 1.6-20.6 4.7-30.1z m-56-229.9c-12 16.5-28.9 29.1-48.7 35.5-9.5 3.1-19.5 4.8-30 4.8-53.6 0-97.2-43.6-97.2-97.2 0-10.5 1.7-20.6 4.8-30.1 6.5-19.7 19.1-36.7 35.6-48.7 16-11.6 35.6-18.4 56.8-18.4 53.6 0 97.2 43.6 97.2 97.2 0 21.2-6.9 40.9-18.5 56.9z m321-314.1c6.5-19.7 19.1-36.7 35.6-48.7 16-11.6 35.6-18.4 56.8-18.4 53.6 0 97.2 43.6 97.2 97.2 0 21.2-6.8 40.9-18.4 56.9-12 16.5-28.9 29.1-48.7 35.5-9.5 3.1-19.5 4.8-30 4.8-53.6 0-97.2-43.6-97.2-97.2-0.1-10.5 1.6-20.7 4.7-30.1z" p-id="10323"></path></svg>