<?xml version="1.0" standalone="no"?><!DOCTYPE svg PUBLIC "-//W3C//DTD SVG 1.1//EN" "http://www.w3.org/Graphics/SVG/1.1/DTD/svg11.dtd"><svg t="1692774318105" class="icon" viewBox="0 0 1024 1024" version="1.1" xmlns="http://www.w3.org/2000/svg" p-id="13992" xmlns:xlink="http://www.w3.org/1999/xlink" width="200" height="200"><path d="M445.952 630.848l31.872 31.936-129.408 129.6a44.928 44.928 0 0 1-9.664 25.344l-33.6 41.856a44.672 44.672 0 0 1-11.072 9.792l-90.368 49.92a45.12 45.12 0 0 1-56.128-6.272l-17.92-17.92a45.12 45.12 0 0 1-6.208-56l49.792-90.624a44.736 44.736 0 0 1 9.792-11.008l41.728-33.664a44.736 44.736 0 0 1 25.28-9.728L379.52 564.416l31.872 31.936-118.4 122.56h0.128l-28.288 28.16-7.04-7.04-36.864 29.824-62.144 98.24 15.872 15.872 98.048-62.144 29.76-37.056-7.04-7.04 150.592-146.88z m506.752-354.88l-220.096 220.48a45.12 45.12 0 0 1-36.928 12.928 39.68 39.68 0 0 0-10.56 0.32l-22.144-25.92c13.632-7.68 21.312-29.44 41.152-37.12l193.28-193.6-108.288-108.48-193.28 193.6c1.728 15.232-19.968 37.952-28.736 53.504l-34.816-34.816a40.32 40.32 0 0 0 0.32-10.816 45.12 45.12 0 0 1 12.928-36.864l220.032-220.416a45.12 45.12 0 0 1 63.872 0l123.264 123.52a45.12 45.12 0 0 1 0 63.68z m-87.488 587.584c-49.792 49.792-122.24 47.936-168.32 18.368L446.016 630.912l-34.624-34.56-31.872-31.936-69.504-69.44a216.32 216.32 0 0 1-239.872-265.664 45.12 45.12 0 0 1 75.776-21.312l74.368 74.368 45.952-12.288 12.288-45.952-76.608-76.608a45.12 45.12 0 0 1 19.584-75.328 216.512 216.512 0 0 1 272.256 246.08l38.592 38.592 35.584 30.848 82.368 87.104 34.88 34.88 192 192c27.776 56.256 37.888 112.128-11.904 161.856z m-46.976-148.288L608.512 505.536 531.84 428.8 499.84 396.8 447.36 344.32a158.336 158.336 0 0 0-39.04-159.808c-41.984-42.048-101.76-76.8-155.2-61.76l87.872 109.184-23.872 88.96-88.96 23.808-111.936-77.568c-12.608 51.968 27.648 100.8 68.16 141.312a158.272 158.272 0 0 0 153.152 40.96l2.944 3.2 370.176 370.176a76.096 76.096 0 0 0 107.52-107.584z m-45.184 62.144l-41.344 11.136-30.336-30.336 11.136-41.408 41.344-11.072 30.336 30.336-11.136 41.344z" fill="#333333" p-id="13993"></path></svg>